<svg width="24" height="24" viewBox="0 0 24 24" fill="none" xmlns="http://www.w3.org/2000/svg">
<path d="M10 4.5H3C2.44771 4.5 2 4.9477 2 5.5V18.5C2 19.0523 2.44771 19.5 3 19.5H21C21.5523 19.5 22 19.0523 22 18.5V17.25M5 11H9M5 15H17M17 10.5C18.6569 10.5 20 9.15685 20 7.5C20 5.84315 18.6569 4.5 17 4.5C15.3431 4.5 14 5.84315 14 7.5C14 9.15685 15.3431 10.5 17 10.5ZM17 10.5C19 10.5 21.0234 11.8011 22 13.7093M17 10.5C15 10.5 14.0036 11.0664 12.9752 12" stroke="#373F45" stroke-width="2" stroke-linecap="round" stroke-linejoin="round"/>
</svg>
