<svg width="24" height="24" viewBox="0 0 24 24" fill="none" xmlns="http://www.w3.org/2000/svg">
<path d="M9.1419 21.612C7.46635 21.1132 5.9749 20.187 4.79393 18.9599C5.2345 18.4377 5.5 17.7631 5.5 17.0264C5.5 15.3696 4.15685 14.0264 2.5 14.0264C2.39977 14.0264 2.3007 14.0313 2.203 14.0409C2.0699 13.3902 2 12.7165 2 12.0264C2 10.9811 2.16039 9.97328 2.4579 9.02613C2.47191 9.02633 2.48594 9.02643 2.5 9.02643C4.15685 9.02643 5.5 7.68328 5.5 6.02643C5.5 5.55078 5.3893 5.10098 5.1923 4.70142C6.34875 3.62611 7.76025 2.82138 9.32605 2.38794C9.8222 3.36046 10.8333 4.02643 12 4.02643C13.1667 4.02643 14.1778 3.36046 14.674 2.38794C16.2398 2.82138 17.6512 3.62611 18.8077 4.70142C18.6107 5.10098 18.5 5.55078 18.5 6.02643C18.5 7.68328 19.8432 9.02643 21.5 9.02643C21.5141 9.02643 21.5281 9.02633 21.5421 9.02613C21.8396 9.97328 22 10.9811 22 12.0264C22 12.7165 21.9301 13.3902 21.797 14.0409C21.6993 14.0313 21.6002 14.0264 21.5 14.0264C19.8432 14.0264 18.5 15.3696 18.5 17.0264C18.5 17.7631 18.7655 18.4377 19.2061 18.9599C18.0251 20.187 16.5336 21.1132 14.8581 21.612C14.4714 20.4023 13.338 19.5264 12 19.5264C10.662 19.5264 9.5286 20.4023 9.1419 21.612Z" stroke="#373F45" stroke-width="2" stroke-linejoin="round"/>
<path d="M12 15.5264C13.933 15.5264 15.5 13.9594 15.5 12.0264C15.5 10.0934 13.933 8.52643 12 8.52643C10.067 8.52643 8.5 10.0934 8.5 12.0264C8.5 13.9594 10.067 15.5264 12 15.5264Z" stroke="#373F45" stroke-width="2" stroke-linejoin="round"/>
</svg>
